<svg id="Capa_1" enable-background="new 0 0 512 512" height="512" viewBox="0 0 512 512" width="512" xmlns="http://www.w3.org/2000/svg"><g><path d="m451.678 195.734c0-41.609-12.797-81.157-37.037-114.606 2.047-10.238-2.139-25.366-10.764-33.323-8.684-8.274-20.225-12.783-33.315-10.766-33.454-24.241-73.007-37.039-114.617-37.039s-81.164 12.798-114.618 37.04c-10.239-2.044-25.359 2.143-33.314 10.766-8.277 8.686-12.785 20.226-10.766 33.318-41.297 56.105-48.88 135.21-18.057 198.807 1.286 2.699 3.974 4.277 6.776 4.277 1.081 0 2.18-.235 3.221-.731 3.739-1.781 5.327-6.257 3.546-9.996-5.96-12.512-10.414-25.636-13.348-39.092l24.684 11.815c4.029 12.146 9.536 23.79 16.455 34.739-4.623 1.907-8.868 4.728-12.511 8.37-7.261 7.26-11.259 16.912-11.259 27.179s3.998 19.919 11.258 27.179c8.685 8.275 20.226 12.783 33.316 10.765 22.162 16.059 47.001 27.088 73.343 32.708v54.294c-9.777 2.928-16.925 12.003-16.925 22.721v24.124c0 13.078 10.64 23.717 23.717 23.717h1.423c13.077 0 23.717-10.64 23.717-23.717v-24.124c0-10.72-7.151-19.797-16.932-22.723v-51.7c8.639 1.148 17.408 1.738 26.273 1.738 41.612 0 81.164-12.797 114.616-37.038 10.239 2.044 25.36-2.142 33.316-10.765 8.277-8.688 12.785-20.228 10.764-33.324 24.241-33.454 37.038-73.004 37.038-114.613zm-220.075 292.549c0 4.807-3.91 8.717-8.717 8.717h-1.423c-4.807 0-8.717-3.911-8.717-8.717v-24.124c0-4.807 3.91-8.717 8.717-8.717h.679c.01 0 .019.001.029.001s.019-.001.029-.001h.686c4.807 0 8.717 3.91 8.717 8.717zm172.274-198.971c-3.643-3.643-7.888-6.463-12.512-8.37 8.224-13.016 14.458-27.014 18.583-41.669l16.51 16.68c-4.677 13.257-10.932 25.956-18.692 37.904-1.168-1.597-2.463-3.119-3.889-4.545zm-54.357 0c-6.918 6.917-10.865 16.007-11.224 25.73-47.441 33.693-116.205 34.365-164.703 0-.358-9.723-4.306-18.813-11.223-25.73s-16.006-10.864-25.729-11.222c-33.693-47.408-34.378-116.235 0-164.704 9.722-.359 18.812-4.306 25.728-11.222h-.001c6.918-6.917 10.865-16.007 11.224-25.729 47.458-33.7 116.203-34.371 164.703 0 .358 9.722 4.306 18.812 11.223 25.729s16.006 10.864 25.728 11.222c33.713 47.536 34.378 116.172 0 164.704-9.721.359-18.811 4.306-25.726 11.222zm87.158-93.578c0 14.98-1.799 29.67-5.316 43.85l-17.559-17.739c1.396-8.556 2.109-17.277 2.109-26.107 0-8.526-.661-16.953-1.963-25.226l22.153 10.607c.383 4.836.576 9.71.576 14.615zm-2.86-32.34-23.947-11.465c-4.125-14.555-10.333-28.461-18.506-41.395 4.623-1.907 8.869-4.728 12.511-8.371 1.426-1.426 2.722-2.948 3.891-4.545 13.059 20.106 21.851 42.345 26.051 65.776zm-40.548-104.982c8.291 8.012 9.56 23.825 0 33.145-4.426 4.427-10.312 6.864-16.572 6.864s-12.146-2.438-16.572-6.864-6.864-10.312-6.864-16.572 2.438-12.146 6.865-16.572c8.009-8.291 23.825-9.559 33.143-.001zm-43.75-10.606c-3.643 3.643-6.464 7.888-8.371 12.511-13.053-8.248-27.096-14.493-41.798-18.616l16.688-16.524c13.303 4.682 26.045 10.952 38.031 18.736-1.6 1.168-3.123 2.465-4.55 3.893zm-49.858-27.524-17.751 17.576c-16.013-2.643-35.384-2.864-52.823.15l10.669-22.293c5.351-.47 10.749-.715 16.187-.715 14.934 0 29.579 1.787 43.718 5.282zm-77.709-2.114-11.56 24.155c-13.923 4.118-27.236 10.147-39.652 17.993-1.907-4.623-4.728-8.868-8.37-12.511-1.428-1.428-2.951-2.724-4.55-3.894 19.635-12.752 41.305-21.43 64.132-25.743zm-103.334 40.244c8.01-8.29 23.825-9.559 33.145 0 4.427 4.427 6.864 10.312 6.864 16.572s-2.438 12.146-6.864 16.572c-.001 0-.001 0-.001 0-4.426 4.427-10.312 6.864-16.571 6.864-6.261 0-12.146-2.438-16.573-6.864-8.291-8.011-9.56-23.824 0-33.144zm-10.607 43.751c3.643 3.643 7.889 6.463 12.512 8.371-8.86 14.022-15.406 29.186-19.498 45.079l-16.63-16.787c4.798-14.493 11.403-28.347 19.728-41.205 1.168 1.596 2.463 3.117 3.888 4.542zm-31.617 114.164c-1.428-12.531-1.57-25.24-.355-37.926.742-7.753 1.999-15.414 3.715-22.947l17.761 17.929c-1.021 7.349-1.539 14.813-1.539 22.355 0 10.668 1.034 21.18 3.066 31.429zm42.224 116.737c-4.428-4.427-6.865-10.312-6.865-16.573s2.438-12.146 6.865-16.572c4.426-4.427 10.312-6.864 16.572-6.864s12.146 2.438 16.571 6.864h.001c4.427 4.427 6.864 10.312 6.864 16.572s-2.438 12.146-6.865 16.573c-7.855 8.343-23.717 9.549-33.143 0zm43.751 10.606c3.643-3.643 6.463-7.888 8.37-12.511 13.248 8.371 27.518 14.675 42.46 18.796l-16.723 16.559c-13.529-4.705-26.484-11.045-38.657-18.951 1.6-1.169 3.123-2.465 4.55-3.893zm61.742 30.031c-3.054-.551-5.786-1.073-11.207-2.343l17.795-17.621c15.777 2.509 34.359 2.706 51.669-.197l-10.656 22.255c-14.173 1.294-32.162.703-47.601-2.094zm65.385-.311 11.54-24.103c14.09-4.121 27.559-10.196 40.112-18.128 1.907 4.623 4.728 8.868 8.37 12.511 1.427 1.427 2.95 2.724 4.549 3.893-19.761 12.834-41.582 21.543-64.571 25.827zm103.773-40.326c-8.286 8.401-23.336 9.61-33.144 0-4.428-4.427-6.865-10.312-6.865-16.573s2.438-12.146 6.865-16.572c4.426-4.427 10.312-6.864 16.571-6.864 6.261 0 12.146 2.438 16.573 6.864s6.864 10.312 6.864 16.572-2.437 12.146-6.864 16.573z"/><path d="m297.218 441.438v-24.802c0-4.142-3.357-7.5-7.5-7.5s-7.5 3.358-7.5 7.5v24.8c-9.781 2.926-16.932 12.003-16.932 22.723v24.124c0 13.078 10.64 23.717 23.717 23.717h1.423c13.077 0 23.717-10.64 23.717-23.717v-24.124c0-10.718-7.148-19.793-16.925-22.721zm1.925 46.845c0 4.807-3.91 8.717-8.717 8.717h-1.423c-4.807 0-8.717-3.911-8.717-8.717v-24.124c0-4.807 3.91-8.717 8.717-8.717h.686c.01 0 .019.001.029.001s.019-.001.029-.001h.679c4.807 0 8.717 3.91 8.717 8.717z"/></g></svg>