<svg id="Capa_1" enable-background="new 0 0 512 512" height="512" viewBox="0 0 512 512" width="512" xmlns="http://www.w3.org/2000/svg"><path d="m437.037 123.992-24.8-13.053c.173-1.122.263-2.27.263-3.439 0-3.624-.866-7.047-2.395-10.082 4.47-6.146 6.895-13.529 6.895-21.24 0-19.949-16.229-36.178-36.178-36.178h-38.822v-12.5c0-15.163-12.337-27.5-27.5-27.5h-68.846c-4.143 0-7.5 3.357-7.5 7.5s3.357 7.5 7.5 7.5h68.846c6.893 0 12.5 5.607 12.5 12.5v26.851c0 17.688 9.724 33.794 25.377 42.033l15.335 8.071c-.135.997-.212 2.012-.212 3.045 0 3.811.956 7.401 2.635 10.55l-11.548 12.1c-2.91-1.377-6.159-2.15-9.587-2.15-12.406 0-22.5 10.094-22.5 22.5 0 3.8.95 7.38 2.621 10.523l-11.563 12.114c-2.903-1.368-6.142-2.137-9.558-2.137-12.406 0-22.5 10.094-22.5 22.5 0 3.789.946 7.36 2.607 10.496l-22.892 23.986c-2.815-1.27-5.932-1.982-9.215-1.982s-6.4.713-9.215 1.982l-22.892-23.986c1.661-3.136 2.607-6.707 2.607-10.496 0-12.406-10.094-22.5-22.5-22.5-3.416 0-6.655.769-9.558 2.137l-11.563-12.115c1.67-3.142 2.62-6.723 2.62-10.523 0-12.406-10.094-22.5-22.5-22.5-3.427 0-6.676.773-9.586 2.15l-11.548-12.1c1.679-3.149 2.634-6.739 2.634-10.55 0-1.033-.076-2.049-.212-3.045l15.335-8.071c15.654-8.238 25.378-24.344 25.378-42.032v-26.851c0-6.893 5.607-12.5 12.5-12.5h13.154c4.143 0 7.5-3.357 7.5-7.5s-3.357-7.5-7.5-7.5h-13.154c-15.163 0-27.5 12.337-27.5 27.5v12.5h-38.822c-19.949 0-36.178 16.229-36.178 36.178 0 7.711 2.425 15.095 6.895 21.24-1.528 3.035-2.395 6.458-2.395 10.082 0 1.169.09 2.318.263 3.44l-24.8 13.053c-22.955 12.081-33.59 38.687-25.287 63.261l80.827 239.249c5.153 15.25 19.431 25.497 35.527 25.497h44.97v15h-59.5c-9.649 0-17.5 7.851-17.5 17.5v10c0 9.649 7.851 17.5 17.5 17.5h209c9.649 0 17.5-7.851 17.5-17.5v-10c0-9.649-7.851-17.5-17.5-17.5h-10.833c-4.143 0-7.5 3.357-7.5 7.5s3.357 7.5 7.5 7.5h10.833c1.379 0 2.5 1.121 2.5 2.5v10c0 1.379-1.121 2.5-2.5 2.5h-209c-1.379 0-2.5-1.121-2.5-2.5v-10c0-1.379 1.121-2.5 2.5-2.5h163.167c4.143 0 7.5-3.357 7.5-7.5s-3.357-7.5-7.5-7.5h-13.667v-15h44.97c16.097 0 30.374-10.247 35.527-25.498l80.827-239.249c8.303-24.574-2.332-51.18-25.287-63.261zm-54.537-16.492c0-4.136 3.364-7.5 7.5-7.5s7.5 3.364 7.5 7.5-3.364 7.5-7.5 7.5-7.5-3.364-7.5-7.5zm-40.478-52.5h38.8c11.678 0 21.178 9.5 21.178 21.178 0 3.827-1.038 7.506-2.942 10.733-2.773-1.225-5.836-1.911-9.058-1.911-5.958 0-11.378 2.332-15.407 6.126l-15.229-8.015c-10.518-5.537-17.107-16.266-17.342-28.111zm6.978 88c4.136 0 7.5 3.364 7.5 7.5s-3.364 7.5-7.5 7.5-7.5-3.364-7.5-7.5 3.364-7.5 7.5-7.5zm-41 43c4.136 0 7.5 3.364 7.5 7.5s-3.364 7.5-7.5 7.5-7.5-3.364-7.5-7.5 3.364-7.5 7.5-7.5zm-44.5 62.5c0 4.136-3.364 7.5-7.5 7.5s-7.5-3.364-7.5-7.5 3.364-7.5 7.5-7.5 7.5 3.364 7.5 7.5zm-16.942 153.629-38.982-44.938c-.194-.224-.37-.457-.546-.691h41.47v47.437c-.703-.528-1.356-1.132-1.942-1.808zm1.942-60.629h-41.471c.175-.234.351-.467.545-.69l38.984-44.939c.586-.676 1.239-1.279 1.941-1.807v47.436zm15 15h41.471c-.175.234-.351.467-.545.69l-38.984 44.939c-.586.676-1.239 1.279-1.941 1.807v-47.436zm0-15v-47.437c.703.528 1.356 1.131 1.942 1.808l38.982 44.938c.194.224.37.457.546.691zm-52-148c0 4.136-3.364 7.5-7.5 7.5s-7.5-3.364-7.5-7.5 3.364-7.5 7.5-7.5 7.5 3.364 7.5 7.5zm-41-43c0 4.136-3.364 7.5-7.5 7.5s-7.5-3.364-7.5-7.5 3.364-7.5 7.5-7.5 7.5 3.364 7.5 7.5zm-56-43c0-4.136 3.364-7.5 7.5-7.5s7.5 3.364 7.5 7.5-3.364 7.5-7.5 7.5-7.5-3.364-7.5-7.5zm16.678-52.5h38.8c-.234 11.845-6.824 22.574-17.341 28.11l-15.229 8.015c-4.03-3.793-9.45-6.125-15.408-6.125-3.222 0-6.285.686-9.058 1.911-1.904-3.227-2.942-6.907-2.942-10.733 0-11.678 9.5-21.178 21.178-21.178zm154.822 412h-60v-15h60zm162.113-284.548-80.827 239.249c-3.092 9.151-11.658 15.299-21.316 15.299h-179.94c-9.658 0-18.225-6.148-21.316-15.299l-80.827-239.249c-5.931-17.554 1.666-36.557 18.063-45.187l24.928-13.12c3.997 3.636 9.305 5.855 15.122 5.855 3.128 0 6.108-.643 8.817-1.802l11.932 12.503c-1.44 2.964-2.249 6.288-2.249 9.799 0 12.406 10.094 22.5 22.5 22.5 3.138 0 6.127-.648 8.843-1.813l11.919 12.488c-1.448 2.971-2.263 6.304-2.263 9.825 0 12.406 10.094 22.5 22.5 22.5 3.149 0 6.148-.653 8.872-1.826l23.063 24.165c-1.553 3.055-2.435 6.506-2.435 10.161 0 9.777 6.271 18.114 15 21.21v7.898c-5.099 1.445-9.727 4.345-13.272 8.433l-38.984 44.939c-8.91 10.272-8.91 25.767.001 36.04l38.982 44.938c5.227 6.025 12.798 9.48 20.773 9.48s15.547-3.455 20.772-9.479l38.983-44.938c0-.001.001-.001.001-.001 8.91-10.272 8.91-25.767-.001-36.04l-38.982-44.938c-3.546-4.089-8.174-6.989-13.273-8.434v-7.898c8.729-3.096 15-11.433 15-21.21 0-3.655-.882-7.106-2.435-10.161l23.063-24.165c2.724 1.173 5.723 1.826 8.872 1.826 12.406 0 22.5-10.094 22.5-22.5 0-3.521-.815-6.854-2.263-9.825l11.92-12.489c2.716 1.166 5.705 1.813 8.843 1.813 12.406 0 22.5-10.094 22.5-22.5 0-3.51-.809-6.835-2.249-9.798l11.933-12.503c2.709 1.158 5.689 1.801 8.816 1.801 5.817 0 11.125-2.219 15.123-5.854l24.928 13.12c16.397 8.631 23.994 27.633 18.063 45.187z"/></svg>