<svg id="Capa_1" enable-background="new 0 0 511.987 511.987" height="512" viewBox="0 0 511.987 511.987" width="512" xmlns="http://www.w3.org/2000/svg"><g><path d="m243.983 473.186c3.704 2.139 7.857 3.208 12.011 3.208 4.153 0 8.307-1.069 12.011-3.208l49.567-28.617c7.408-4.277 12.011-12.249 12.011-20.804v-82.567c0-8.555-4.603-16.526-12.011-20.804l-49.567-28.617h-.001c-7.408-4.277-16.613-4.277-24.022 0l-49.567 28.617c-7.409 4.277-12.011 12.249-12.011 20.804v82.567c0 8.555 4.602 16.526 12.011 20.804zm-28.52-118.11c-.004.144-.014.287-.014.431v53.948c0 .145.01.287.014.431l-18.059 10.427v-75.665zm-10.559 78.228 18.06-10.427c.123.075.241.156.366.228l24.782 14.308c.126.073.255.135.382.204v20.854zm50.711-92.766c.117-.067.247-.102.378-.102s.263.034.381.103l24.784 14.309c.234.136.38.389.38.659v53.948c0 .271-.146.523-.381.659l-24.786 14.31c-.117.068-.247.102-.378.102s0 0-.001 0c-.131 0-.262-.034-.38-.103l-24.784-14.309c-.234-.136-.38-.389-.38-.659v-53.948c0-.271.146-.523.381-.659zm7.878 117.932v-20.854c.126-.068.255-.131.38-.203l24.783-14.309c.125-.072.244-.153.366-.228l18.06 10.427zm51.09-113.821v75.664l-18.059-10.427c.004-.144.014-.287.014-.431v-53.948c0-.145-.01-.287-.014-.431zm-7.5-12.991-18.06 10.427c-.123-.075-.241-.156-.366-.228l-24.782-14.308c-.126-.072-.255-.135-.382-.204v-20.853zm-58.59-25.166v20.854c-.127.068-.255.131-.38.203l-24.783 14.309c-.125.072-.244.153-.366.228l-18.06-10.428z"/><path d="m492.014.474c-12.984-2.581-25.665 5.863-28.258 18.82-.074.36-7.756 36.396-36.514 72.343-35.01 43.762-85.016 68.236-148.702 72.806-3.383-9.173-12.213-15.732-22.547-15.732-10.333 0-19.163 6.559-22.547 15.73-63.149-4.534-112.866-28.649-147.843-71.739-29.18-35.948-37.301-73.075-37.367-73.382-1.258-6.292-4.89-11.718-10.226-15.277-5.338-3.561-11.745-4.828-18.041-3.568-12.988 2.598-21.442 15.278-18.845 28.27.249 1.244 6.345 30.866 27.187 65.654 2.129 3.555 6.736 4.71 10.288 2.579 3.553-2.129 4.708-6.734 2.579-10.288-19.525-32.591-25.118-59.751-25.346-60.888-.975-4.879 2.2-9.643 7.079-10.618 2.363-.476 4.771.002 6.775 1.339 2.004 1.336 3.368 3.375 3.846 5.768.082.402 8.562 40.614 40.424 79.865 37.628 46.356 90.765 72.31 158.014 77.216v18.076c-36.996-2.596-70.537-11.307-99.8-25.938-28.584-14.291-53.222-34.219-73.232-59.23-.453-.566-.901-1.133-1.345-1.699-2.557-3.259-7.272-3.827-10.53-1.271-3.259 2.557-3.828 7.271-1.271 10.53.474.604.952 1.209 1.435 1.812 21.375 26.718 47.697 48.007 78.236 63.274 31.317 15.659 67.119 24.912 106.508 27.554v4.805c-5.132 5.718-8.261 13.269-8.261 21.539 0 8.331 3.173 15.935 8.372 21.667l-62.45 36.056c-12.504 7.22-20.273 20.674-20.273 35.112v16.245c0 4.143 3.358 7.5 7.5 7.5s7.5-3.357 7.5-7.5v-16.245c0-9.097 4.894-17.573 12.773-22.122l66.088-38.156c1.108-.64 2.266-1.185 3.453-1.651 2.953.892 6.08 1.377 9.32 1.377s6.367-.485 9.32-1.377c1.187.466 2.345 1.01 3.453 1.649l66.089 38.157c7.878 4.549 12.772 13.025 12.772 22.122v101.646c0 9.097-4.894 17.573-12.772 22.122l-66.089 38.157c-7.878 4.549-17.667 4.549-25.545 0l-66.089-38.157c-7.878-4.549-12.773-13.025-12.773-22.122v-55.4c0-4.143-3.358-7.5-7.5-7.5s-7.5 3.357-7.5 7.5v55.4c0 14.439 7.768 27.893 20.273 35.112l66.09 38.157c6.252 3.609 13.262 5.414 20.272 5.414s14.02-1.805 20.272-5.414l66.089-38.157c12.504-7.22 20.272-20.674 20.272-35.112v-101.646c0-14.438-7.768-27.893-20.272-35.112l-62.45-36.056c5.2-5.733 8.372-13.336 8.372-21.667 0-8.27-3.129-15.821-8.261-21.539v-4.805c39.389-2.642 75.191-11.895 106.508-27.554 30.538-15.268 56.861-36.557 78.236-63.274 36.26-45.326 45.719-90.984 46.104-92.909 2.596-12.989-5.858-25.669-18.85-28.268zm-236.021 163.237c4.975 0 9.022 4.047 9.022 9.021v35.099c-2.865-.836-5.891-1.292-9.022-1.292-3.132 0-6.157.457-9.023 1.292v-35.099c.001-4.974 4.048-9.021 9.023-9.021zm-17.283 75.111c0-9.53 7.753-17.283 17.284-17.283s17.284 7.753 17.284 17.283-7.753 17.284-17.284 17.284-17.284-7.753-17.284-17.284zm257.445-213.023c-.355 1.775-9.101 43.971-43.108 86.48-20.009 25.011-44.647 44.938-73.231 59.229-29.262 14.631-62.804 23.342-99.8 25.938v-18.074c67.827-4.945 121.276-31.286 158.939-78.365 31.297-39.121 39.425-78.353 39.504-78.745.976-4.878 5.742-8.053 10.616-7.079 4.879.976 8.055 5.74 7.08 10.616z"/></g></svg>